<svg width="262" height="77" viewBox="0 0 262 77" fill="none" xmlns="http://www.w3.org/2000/svg">
<path d="M3.968 21.12L7.616 24.768V25.728L3.968 29.312L0.32 25.664V24.768L3.968 21.12ZM11.2 21.12L14.848 24.768V25.728L11.2 29.312L7.616 25.664V24.768L11.2 21.12ZM25.8265 62C23.0532 62 21.0052 61.3813 19.6825 60.144C18.4025 58.864 17.5278 56.6667 17.0585 53.552L14.2425 35.504L16.8025 31.216L17.5065 31.472L18.9785 46.192C19.1492 47.984 19.5118 49.328 20.0665 50.224C20.6638 51.12 21.4105 51.7387 22.3065 52.08C23.2025 52.3787 24.3758 52.528 25.8265 52.528C26.2105 52.528 26.5092 52.6773 26.7225 52.976C26.9785 53.232 27.1065 53.616 27.1065 54.128V60.656C27.1065 61.0827 26.9785 61.424 26.7225 61.68C26.5092 61.8933 26.2105 62 25.8265 62ZM15.2025 57.264C12.6852 57.4773 10.4878 57.5627 8.6105 57.52C6.73317 57.4773 4.53583 57.2213 2.0185 56.752L0.0985 50.032C3.12783 46.2347 8.2265 42.0533 15.3945 37.488L15.6505 38.832C13.3038 40.368 10.9572 42.096 8.6105 44.016C6.3065 45.8933 4.0665 47.92 1.8905 50.096V48.752C4.10917 49.3493 6.8185 49.648 10.0185 49.648C11.4265 49.648 12.7278 49.52 13.9225 49.264C15.1598 49.008 16.4185 48.6453 17.6985 48.176L17.8265 50.16L15.2025 57.264ZM29.9055 67.408L33.5535 71.056V72.016L29.9055 75.6L26.2575 71.952V71.056L29.9055 67.408ZM37.1375 67.408L40.7855 71.056V72.016L37.1375 75.6L33.5535 71.952V71.056L37.1375 67.408ZM44.7565 62C42.6658 62 40.9592 61.3173 39.6365 59.952C38.3565 58.5867 37.3965 56.1973 36.7565 52.784L34.0045 39.472L36.0525 36.016L36.6285 36.208L38.0365 46.256C38.2498 48.0907 38.6978 49.456 39.3805 50.352C40.1058 51.248 41.0018 51.8453 42.0685 52.144C43.1352 52.4 44.5645 52.528 46.3565 52.528C46.7405 52.528 47.0392 52.6773 47.2525 52.976C47.5085 53.232 47.6365 53.616 47.6365 54.128V60.656C47.6365 61.0827 47.5085 61.424 47.2525 61.68C47.0392 61.8933 46.7405 62 46.3565 62H44.7565ZM25.8125 62C25.3432 62 25.0232 61.8933 24.8525 61.68C24.6392 61.4667 24.5325 61.1467 24.5325 60.72V53.872C24.5325 52.976 24.9378 52.528 25.7485 52.528C27.9245 52.528 30.1218 52.3787 32.3405 52.08C34.6018 51.7813 36.5645 51.248 38.2285 50.48L39.0605 52.208L34.3245 61.104C31.8072 61.7013 28.9698 62 25.8125 62ZM59.7435 28.664L63.5195 32.376V33.4L59.7435 37.176L55.9675 33.4V32.376L59.7435 28.664ZM46.3125 62C45.4592 62 45.0325 61.68 45.0325 61.04V53.616C45.0325 52.8907 45.4592 52.528 46.3125 52.528C47.6778 52.528 49.6192 52.4213 52.1365 52.208C54.6965 51.9947 56.6165 51.7387 57.8965 51.44L55.9765 54.448L59.1125 45.232L60.9685 43.76L61.4165 44.016L55.5925 60.528C54.7818 60.9973 53.3738 61.36 51.3685 61.616C49.4058 61.872 47.7205 62 46.3125 62ZM67.3685 62C64.8938 62 62.6538 61.3387 60.6485 60.016C58.6858 58.6933 57.2778 57.072 56.4245 55.152L58.9845 49.136C59.3685 49.8613 60.0298 50.48 60.9685 50.992C61.9498 51.504 63.0378 51.888 64.2325 52.144C65.4272 52.4 66.5152 52.528 67.4965 52.528C68.2645 52.528 68.6485 53.0187 68.6485 54V60.656C68.6485 61.0827 68.5632 61.424 68.3925 61.68C68.2218 61.8933 67.8805 62 67.3685 62ZM81.2805 22.12L84.9285 25.768V26.728L81.2805 30.312L77.6325 26.664V25.768L81.2805 22.12ZM88.5125 22.12L92.1605 25.768V26.728L88.5125 30.312L84.9285 26.664V25.768L88.5125 22.12ZM67.375 62C66.5217 62 66.095 61.616 66.095 60.848V53.744C66.095 52.9333 66.5217 52.528 67.375 52.528H72.815C76.4417 52.528 80.111 52.2507 83.823 51.696C87.5777 51.0987 90.6283 50.2667 92.975 49.2C92.6337 47.92 91.9937 46.7253 91.055 45.616C90.159 44.5067 89.1137 43.632 87.919 42.992C86.7243 42.3093 85.615 41.968 84.591 41.968C83.5243 41.968 82.3723 42.288 81.135 42.928C79.9403 43.568 78.8097 44.4213 77.743 45.488C76.719 46.5547 75.9083 47.6853 75.311 48.88C77.103 50.032 79.3217 50.928 81.967 51.568C84.6123 52.208 87.0443 52.528 89.263 52.528H99.055C99.9083 52.528 100.335 52.9333 100.335 53.744V60.848C100.335 61.616 99.9083 62 99.055 62H92.399C89.1137 62 86.127 61.424 83.439 60.272C80.7937 59.12 78.1483 57.5413 75.503 55.536L73.455 51.312C73.967 48.368 74.8203 45.7013 76.015 43.312C77.2097 40.88 78.6177 38.9813 80.239 37.616C81.8603 36.208 83.567 35.504 85.359 35.504C86.9803 35.504 88.4737 36.1867 89.839 37.552C91.247 38.9173 92.335 40.624 93.103 42.672C93.9137 44.6773 94.319 46.64 94.319 48.56C94.319 50.8213 93.167 52.9973 90.863 55.088C88.6017 57.136 85.7857 58.8 82.415 60.08C79.0443 61.36 75.8443 62 72.815 62H67.375ZM108.781 30.12L112.429 33.768V34.728L108.781 38.312L105.133 34.664V33.768L108.781 30.12ZM116.013 30.12L119.661 33.768V34.728L116.013 38.312L112.429 34.664V33.768L116.013 30.12ZM99.0625 62C98.2092 62 97.7825 61.68 97.7825 61.04V53.616C97.7825 52.8907 98.2092 52.528 99.0625 52.528C100.428 52.528 102.369 52.4213 104.887 52.208C107.447 51.9947 109.367 51.7387 110.647 51.44L108.727 54.448L111.863 45.232L113.719 43.76L114.167 44.016L108.343 60.528C107.532 60.9973 106.124 61.36 104.119 61.616C102.156 61.872 100.47 62 99.0625 62ZM120.119 62C117.644 62 115.404 61.3387 113.399 60.016C111.436 58.6933 110.028 57.072 109.175 55.152L111.735 49.136C112.119 49.8613 112.78 50.48 113.719 50.992C114.7 51.504 115.788 51.888 116.983 52.144C118.177 52.4 119.265 52.528 120.247 52.528C121.015 52.528 121.399 53.0187 121.399 54V60.656C121.399 61.0827 121.313 61.424 121.143 61.68C120.972 61.8933 120.631 62 120.119 62ZM120.125 62C119.656 62 119.336 61.8933 119.165 61.68C118.952 61.4667 118.845 61.1467 118.845 60.72V53.872C118.845 52.976 119.25 52.528 120.061 52.528C122.152 52.528 124.242 52.3787 126.333 52.08C128.466 51.7387 130.045 51.248 131.069 50.608L130.045 54.64L128.253 23.92L131.325 18.992L132.157 19.248L133.757 30.768L132.541 31.664L132.477 52.592L128.637 60.848C127.058 61.2747 125.608 61.5733 124.285 61.744C123.005 61.9147 121.618 62 120.125 62ZM143.135 62L141.343 23.92L144.415 18.992L145.183 19.248L146.783 30.832L145.567 31.728L145.183 54.384L143.583 62H143.135ZM184.461 62C183.01 62 181.794 61.7227 180.813 61.168C179.874 60.5707 179.042 59.568 178.317 58.16C177.634 56.752 176.994 54.768 176.397 52.208L172.941 38.192L175.628 34.48L176.269 34.736L177.933 46.704C178.189 48.4107 178.551 49.6693 179.021 50.48C179.49 51.2907 180.13 51.8453 180.941 52.144C181.751 52.4 182.925 52.528 184.461 52.528C184.887 52.528 185.207 52.6773 185.421 52.976C185.634 53.232 185.741 53.616 185.741 54.128V60.656C185.741 61.0827 185.634 61.424 185.421 61.68C185.207 61.8933 184.887 62 184.461 62ZM165.901 62C163.383 62 161.463 61.5307 160.141 60.592C158.861 59.6533 158.285 58.1813 158.413 56.176L158.797 49.712H159.245L159.693 52.272C162.679 52.784 165.815 52.912 169.101 52.656C172.429 52.4 174.989 51.7387 176.781 50.672L177.293 51.184L174.541 59.952C173.303 60.6347 171.959 61.1467 170.509 61.488C169.058 61.8293 167.522 62 165.901 62ZM201.852 64.4L205.628 68.112V69.136L201.852 72.912L198.076 69.136V68.112L201.852 64.4ZM230.582 62C225.248 62 221.238 60.6347 218.55 57.904C215.904 55.1307 214.582 51.4827 214.582 46.96L216.118 46.64C216.118 47.664 216.736 48.624 217.974 49.52C219.211 50.416 220.939 51.1413 223.158 51.696C225.376 52.2507 227.872 52.528 230.646 52.528C231.456 52.528 231.862 52.976 231.862 53.872V60.72C231.862 61.1467 231.755 61.4667 231.542 61.68C231.371 61.8933 231.051 62 230.582 62ZM186.934 45.936L191.414 36.144L192.31 35.76L210.102 42.096C212.491 42.992 214.603 43.6107 216.438 43.952C218.272 44.2507 220 44.2507 221.622 43.952C223.286 43.6107 224.843 42.8853 226.294 41.776L226.806 42.096L224.246 46.32C222.923 48.624 220.598 49.8613 217.27 50.032C213.984 50.16 209.91 49.3067 205.046 47.472L189.878 41.904L187.83 46.384H187.254L186.934 45.936ZM184.502 62C183.648 62 183.221 61.5733 183.221 60.72L183.157 53.808C183.157 53.3387 183.264 53.0187 183.477 52.848C183.648 52.6347 183.968 52.528 184.438 52.528C188.064 52.528 191.52 52.144 194.806 51.376C198.134 50.5653 201.995 49.4133 206.39 47.92C209.334 46.9813 211.702 46.256 213.494 45.744C215.328 45.232 217.014 44.912 218.55 44.784L220.278 48.688C218.315 49.2427 216.502 49.9467 214.838 50.8C213.216 51.6533 211.19 52.8267 208.758 54.32C205.984 56.0267 203.574 57.392 201.526 58.416C199.478 59.3973 197.024 60.2507 194.166 60.976C191.35 61.6587 188.128 62 184.502 62ZM239.62 68.384L243.396 72.096V73.12L239.62 76.832L235.844 73.12V72.096L239.62 68.384ZM230.562 62C229.709 62 229.282 61.6373 229.282 60.912V53.68C229.282 52.912 229.709 52.528 230.562 52.528C233.293 52.528 235.96 52.3787 238.562 52.08C241.165 51.7387 243.256 51.248 244.835 50.608L244.899 52.4L239.715 42.288L242.979 37.488L243.619 37.808C244.216 39.8987 244.685 41.9467 245.027 43.952C245.368 45.9147 245.667 48.0693 245.923 50.416L242.531 60.144C240.824 60.8267 239.011 61.3173 237.091 61.616C235.213 61.872 233.037 62 230.562 62ZM250.819 14.368L250.883 13.536L254.915 8.928L254.979 11.04C253.23 10.6133 251.907 9.952 251.011 9.056C250.115 8.16 249.667 7.072 249.667 5.792C249.667 4.55466 250.072 3.424 250.883 2.4C251.694 1.33333 252.696 0.799999 253.891 0.799999C254.915 0.799999 255.79 1.184 256.515 1.952C257.24 2.72 257.752 3.808 258.051 5.216L257.539 5.856C257.07 5.38666 256.558 5.04533 256.003 4.832C255.448 4.61866 254.851 4.512 254.211 4.512C252.931 4.512 251.864 5.04533 251.011 6.112C251.736 6.70933 252.568 7.15733 253.507 7.456C254.488 7.75467 255.534 7.904 256.643 7.904C257.411 7.904 258.136 7.79733 258.819 7.584C259.544 7.37066 260.355 6.944 261.251 6.304L261.635 6.688L260.163 10.784L251.267 15.456L250.819 14.368ZM254.698 62L252.906 23.92L255.978 18.992L256.746 19.248L258.345 30.832L257.13 31.728L256.746 54.384L255.146 62H254.698Z" fill="black"/>
</svg>
